%
M48
M72
T01C0.03150
T02C0.03740
%
T01
X23362Y149425
X23362Y159425
X23362Y169425
X23362Y179425
X23362Y189425
X23362Y199425
X23362Y209425
T02
X49476Y200606
X49476Y219806
X57518Y219806
X57518Y200606
X57518Y168035
X57518Y148835
X49476Y148835
X49476Y168035
X49476Y116263
X49476Y97063
X57518Y97063
X57518Y116263
X65561Y116263
X65561Y97063
X65561Y64491
X65561Y45291
X57518Y45291
X57518Y64491
X49476Y64491
X49476Y45291
X65561Y148835
X65561Y168035
X65561Y200606
X65561Y219806
X65561Y252378
X65561Y271578
X65561Y304150
X65561Y323350
X57518Y323350
X57518Y304150
X49476Y304150
X49476Y323350
X49476Y271578
X49476Y252378
X57518Y252378
X57518Y271578
M30
